<svg width="65" height="18" viewBox="0 0 65 18" fill="none" xmlns="http://www.w3.org/2000/svg">
<path d="M7.99956 13.1834L5.23289 14.85C5.11067 14.9278 4.98289 14.9612 4.84956 14.95C4.71623 14.9389 4.59956 14.8945 4.49956 14.8167C4.39956 14.7389 4.32178 14.6418 4.26623 14.5254C4.21067 14.4085 4.19956 14.2778 4.23289 14.1334L4.96623 10.9834L2.51623 8.86672C2.40511 8.76672 2.33578 8.65272 2.30823 8.52472C2.28023 8.39716 2.28845 8.27227 2.33289 8.15005C2.37734 8.02783 2.444 7.92783 2.53289 7.85005C2.62178 7.77227 2.744 7.72227 2.89956 7.70005L6.13289 7.41672L7.38289 4.45005C7.43845 4.31672 7.52467 4.21672 7.64156 4.15005C7.758 4.08338 7.87734 4.05005 7.99956 4.05005C8.12178 4.05005 8.24134 4.08338 8.35823 4.15005C8.47467 4.21672 8.56067 4.31672 8.61623 4.45005L9.86623 7.41672L13.0996 7.70005C13.2551 7.72227 13.3773 7.77227 13.4662 7.85005C13.5551 7.92783 13.6218 8.02783 13.6662 8.15005C13.7107 8.27227 13.7191 8.39716 13.6916 8.52472C13.6636 8.65272 13.594 8.76672 13.4829 8.86672L11.0329 10.9834L11.7662 14.1334C11.7996 14.2778 11.7884 14.4085 11.7329 14.5254C11.6773 14.6418 11.5996 14.7389 11.4996 14.8167C11.3996 14.8945 11.2829 14.9389 11.1496 14.95C11.0162 14.9612 10.8884 14.9278 10.7662 14.85L7.99956 13.1834Z" fill="#0E8B00"/>
<path d="M28.005 15V12.645H29.46V11.175H28.005V4.635H26.265L21.36 11.025V12.645H26.265V15H28.005ZM26.265 6.795V11.175H22.905L26.265 6.795ZM31.3348 15.12C31.8748 15.12 32.2948 14.745 32.2948 14.145C32.2948 13.56 31.8748 13.17 31.3348 13.17C30.7798 13.17 30.3598 13.56 30.3598 14.145C30.3598 14.745 30.7798 15.12 31.3348 15.12ZM33.3442 12.075C33.3442 14.175 35.0842 15.225 37.3492 15.225C39.6142 15.225 41.3692 14.175 41.3692 12.075C41.3692 10.65 40.4092 9.915 39.4342 9.48V9.45C40.1542 9.06 40.8592 8.415 40.8592 7.245C40.8592 5.46 39.3742 4.41 37.3492 4.41C35.3242 4.41 33.8392 5.46 33.8392 7.245C33.8392 8.415 34.5292 9.06 35.2642 9.45V9.48C34.2742 9.915 33.3442 10.65 33.3442 12.075ZM37.3492 8.835C36.1942 8.835 35.4742 8.325 35.4742 7.32C35.4742 6.33 36.1942 5.79 37.3492 5.79C38.5042 5.79 39.2242 6.33 39.2242 7.32C39.2242 8.325 38.5042 8.835 37.3492 8.835ZM37.3492 13.8C35.9542 13.8 35.0692 13.11 35.0692 11.97C35.0692 10.845 35.9542 10.155 37.3492 10.155C38.7592 10.155 39.6292 10.845 39.6292 11.97C39.6292 13.11 38.7592 13.8 37.3492 13.8ZM46.5261 8.01C45.4461 8.01 44.6811 8.355 44.1411 8.91V8.88L44.6961 6.105H49.3611V4.635H43.3911L42.2661 10.29H44.0211C44.5161 9.675 45.2511 9.39 46.0611 9.39C47.3211 9.39 48.1461 10.05 48.1461 11.46C48.1461 12.96 47.2461 13.74 45.9711 13.74C44.5311 13.74 43.9161 12.87 43.8111 11.94H42.0861C42.1461 13.725 43.5261 15.225 46.0611 15.225C48.2211 15.225 49.8861 13.785 49.8861 11.475C49.8861 9.45 48.5211 8.01 46.5261 8.01ZM55.9554 4.275H54.5154L50.3604 15H51.8004L55.9554 4.275ZM60.5007 8.01C59.4207 8.01 58.6557 8.355 58.1157 8.91V8.88L58.6707 6.105H63.3357V4.635H57.3657L56.2407 10.29H57.9957C58.4907 9.675 59.2257 9.39 60.0357 9.39C61.2957 9.39 62.1207 10.05 62.1207 11.46C62.1207 12.96 61.2207 13.74 59.9457 13.74C58.5057 13.74 57.8907 12.87 57.7857 11.94H56.0607C56.1207 13.725 57.5007 15.225 60.0357 15.225C62.1957 15.225 63.8607 13.785 63.8607 11.475C63.8607 9.45 62.4957 8.01 60.5007 8.01Z" fill="#74816D"/>
</svg>
